# AST/ASF file generated using VICON BodyLanguage
# -----------------------------------------------
:version 1.10
:name VICON
:units
  mass 1.0
  length 0.45
  angle deg
:documentation
   .ast/.asf automatically generated from VICON data using
   VICON BodyBuilder and BodyLanguage model FoxedUp or BRILLIANT.MOD
:root
   order TX TY TZ RX RY RZ
   axis XYZ
   position 0 0 0  
   orientation 0 0 0 
:bonedata
  begin
     id 1 
     name lhipjoint
     direction 0.64773 -0.699417 0.302095 
     length 2.48597 
     axis 0 0 0  XYZ
  end
  begin
     id 2 
     name lfemur
     direction 0.34202 -0.939693 0  
     length 6.71947  
     axis 0 0 20  XYZ
    dof rx ry rz
    limits (-160.0 20.0)
           (-70.0 70.0)
           (-60.0 70.0)
  end
  begin
     id 3 
     name ltibia
     direction 0.34202 -0.939693 0   
     length 8.08777   
     axis 0 0 20   XYZ
    dof rx
    limits (-10.0 170.0)
  end
  begin
     id 4 
     name lfoot
     direction 0.0808503 -0.222134 0.971658   
     length 2.08264   
     axis -90 7.62852e-016 20   XYZ
    dof rx rz
    limits (-45.0 90.0)
           (-70.0 20.0)
  end
  begin
     id 5 
     name ltoes
     direction 1.53502e-011 -4.22007e-011 1   
     length 1.04662   
     axis -90 7.62852e-016 20   XYZ
    dof rx
    limits (-90.0 20.0)
  end
  begin
     id 6 
     name rhipjoint
     direction -0.610924 -0.726792 0.313919   
     length 2.39233  
     axis 0 0 0  XYZ 
  end
  begin
     id 7 
     name rfemur
     direction -0.34202 -0.939693 0   
     length 6.96955   
     axis 0 0 -20   XYZ
    dof rx ry rz
    limits (-160.0 20.0)
           (-70.0 70.0)
           (-70.0 60.0)
  end
  begin
     id 8 
     name rtibia
     direction -0.34202 -0.939693 0   
     length 8.19584   
     axis 0 0 -20   XYZ
    dof rx
    limits (-10.0 170.0)
 end
 begin
     id 9 
     name rfoot
     direction -0.077777 -0.213691 0.9738   
     length 2.07539  
     axis -90 -7.62852e-016 -20   XYZ
    dof rx rz
    limits (-45.0 90.0)
           (-20.0 70.0)
  end
  begin
     id 10 
     name rtoes
     direction -1.53558e-011 -4.22006e-011 1   
     length 1.04381   
     axis -90 -7.62852e-016 -20   XYZ
    dof rx
    limits (-90.0 20.0)
  end
  begin
     id 11 
     name lowerback
     direction -0.00971646 0.996074 0.0879841   
     length 1.67643   
     axis 0 0 0   XYZ
    dof rx ry rz
    limits (-20.0 45.0)
           (-30.0 30.0)
           (-30.0 30.0)
  end
  begin
     id 12 
     name upperback
     direction 0.0127391 0.991676 0.128127   
     length 1.63741   
     axis 0 0 0   XYZ
    dof rx ry rz
    limits (-20.0 45.0)
           (-30.0 30.0)
           (-30.0 30.0)
  end
  begin
     id 13 
     name thorax
     direction 0.0167583 0.996049 0.0872067   
     length 1.65931   
     axis 0 0 0   XYZ
    dof rx ry rz
    limits (-20.0 45.0)
           (-30.0 30.0)
           (-30.0 30.0)
  end
  begin
     id 14 
     name lowerneck
     direction -0.0317829 0.998312 0.0486079   
     length 1.79021   
     axis 0 0 0   XYZ
    dof rx ry rz
    limits (-20.0 45.0)
           (-30.0 30.0)
           (-30.0 30.0)
  end
  begin
     id 15 
     name upperneck
     direction 0.0896851 0.972452 -0.215159   
     length 1.78797   
     axis 0 0 0   XYZ
    dof rx ry rz
    limits (-20.0 45.0)
           (-30.0 30.0)
           (-30.0 30.0)
  end
  begin
     id 16
     name head
     direction 0.0310949 0.996503 -0.0775582  
     length 1.81549  
     axis 0 0 0   XYZ
    dof rx ry rz
    limits (-20.0 45.0)
           (-30.0 30.0)
           (-30.0 30.0)
  end
  begin
     id 17 
     name lclavicle
     direction 0.853638 0.502051 -0.138733  
     length 3.31627  
     axis 0 0 0   XYZ
    dof ry rz
    limits (-20.0 10.0)
           (0.0 20.0)
  end
  begin
     id 18 
     name lhumerus
     direction 1 -4.48962e-011 -1.41788e-018   
     length 5.54893   
     axis 180 -30 -90   XYZ
    dof rx ry rz
    limits (-60.0 90.0)
           (-90.0 90.0)
           (-90.0 90.0)
  end
  begin
     id 19
     name lradius
     direction 1 -4.48962e-011 -4.95754e-027   
     length 3.02898   
     axis 180 -30 -90   XYZ
    dof rx
    limits (-10.0 170.0)
  end
  begin
     id 20
     name lwrist
     direction 1 -4.48952e-011 -1.03764e-026   
     length 1.51449   
     axis 9.09556e-015 90 90   XYZ
    dof ry
    limits (-180.0 0.0)
 end
  begin
     id 21 
     name lhand
     direction 1 -4.4902e-011 -2.07528e-026   
     length 0.640951   
     axis 1.3242e-014 90 90   XYZ
    dof rx rz
    limits (-90.0 90.0)
           (-45.0 45.0)
  end
  begin
     id 22 
     name lfingers
     direction 1 -4.49014e-011 -4.15056e-026   
     length 0.516751   
     axis 2.64841e-014 90 90   XYZ
    dof rx
    limits (0.0 90.0)
  end
  begin
     id 23
     name lthumb
     direction 0.707107 -6.35008e-011 0.707107   
     length 0.741954   
     axis -90 45 2.85299e-015   XYZ
    dof rx rz
    limits (-45.0 45.0)
           (-45.0 45.0)
  end
  begin
     id 24 
     name rclavicle
     direction -0.888531 0.455324 -0.0565039   
     length 3.20126  
     axis 0 0 0   XYZ 
    dof ry rz
    limits (-10.0 20.0)
           (-20.0 0.0)
  end
  begin
     id 25 
     name rhumerus
     direction -1 -4.48946e-011 -8.98298e-028  
     length 5.3519   
     axis 180 30 90   XYZ
    dof rx ry rz
    limits (-90.0 60.0)
           (-90.0 90.0)
           (-90.0 90.0)
  end
  begin
     id 26 
     name rradius
     direction -1 -4.4899e-011 -3.18779e-027   
     length 3.02531   
     axis 180 30 90   XYZ
    dof rx
    limits (-10.0 170.0)
  end
  begin
     id 27 
     name rwrist
     direction -1 -4.4897e-011 -1.03764e-026   
     length 1.51266   
     axis 9.09556e-015 -90 -90   XYZ
    dof ry
    limits (-180.0 0.0)
  end
  begin
     id 28
     name rhand
     direction -1 -4.48941e-011 -2.07528e-026   
     length 0.78389   
     axis 1.3242e-014 -90 -90   XYZ
    dof rx rz
    limits (-90.0 90.0)
           (-45.0 45.0)
  end
  begin
     id 29
     name rfingers
     direction -1 -4.49012e-011 -4.15056e-026   
     length 0.631992   
     axis 2.64841e-014 -90 -90   XYZ
    dof rx
    limits (0.0 90.0)
  end
  begin
     id 30
     name rthumb
     direction -0.707107 -6.3496e-011 0.707107   
     length 0.907418   
     axis -90 -45 -2.85299e-015   XYZ
    dof rx rz
    limits (-45.0 45.0)
           (-45.0 45.0)
  end
:hierarchy
  begin
    root lhipjoint rhipjoint lowerback
    lhipjoint lfemur
    lfemur ltibia
    ltibia lfoot
    lfoot ltoes
    rhipjoint rfemur
    rfemur rtibia
    rtibia rfoot
    rfoot rtoes
    lowerback upperback
    upperback thorax
    thorax lowerneck lclavicle rclavicle
    lowerneck upperneck
    upperneck head
    lclavicle lhumerus
    lhumerus lradius
    lradius lwrist
    lwrist lhand lthumb
    lhand lfingers
    rclavicle rhumerus
    rhumerus rradius
    rradius rwrist
    rwrist rhand rthumb
    rhand rfingers
  end

#!OML:ASF E:\Style3\Style3.ASF
:FULLY-SPECIFIED
:DEGREES
431
root -2.58037 17.1876 0.727891 -506.219 81.6759 -526.02
lowerback 32.2625 0.584635 3.00042
upperback 5.63901 2.05824 -2.84914
thorax -10.2427 1.12555 -5.46954
lowerneck -6.3669 -2.64419 -1.17605
upperneck -16.7033 -1.36525 11.2454
head -3.80883 -0.711168 3.66561
rclavicle 1.32192e-014 -3.25013e-014
rhumerus 28.11 -14.0924 -107.195
rradius 21.3382
rwrist -35.5584
rhand -22.6508 10.7084
rfingers 7.12502
rthumb 3.78029 -19.2378
lclavicle 1.32192e-014 -3.25013e-014
lhumerus 15.491 -43.778 16.2473
lradius 14.6793
lwrist -48.7887
lhand 2.96937 25.2498
lfingers 7.12502
lthumb 28.4313 53.11
rfemur -44.6563 -6.05031 19.1565
rtibia 38.4252
rfoot -12.2787 -8.08703
rtoes -25.8172
lfemur -45.4898 5.24804 -15.8159
ltibia 34.8857
lfoot -8.8091 -1.47335
ltoes -17.7162
432
root -2.58378 17.188 0.711925 -503.724 82.5906 -523.372
lowerback 32.117 0.43937 2.71098
upperback 5.67927 1.76565 -2.87548
thorax -10.1762 0.998681 -5.22744
lowerneck -6.42545 -2.18919 -0.982384
upperneck -16.6584 -0.829896 10.6508
head -3.83237 -0.433817 3.44127
rclavicle 3.04141e-014 -6.81831e-014
rhumerus 26.5045 -16.8664 -106.913
rradius 20.8384
rwrist -34.495
rhand -23.1401 10.6473
rfingers 7.12502
rthumb 3.30778 -19.3068
lclavicle 3.04141e-014 -6.81831e-014
lhumerus 12.2995 -28.3412 22.717
lradius 13.9248
lwrist -63.6033
lhand 0.137636 29.8052
lfingers 7.12502
lthumb 25.7222 58.0869
rfemur -44.5268 -5.61347 19.1108
rtibia 38.1971
rfoot -12.1912 -7.56194
rtoes -25.2954
lfemur -45.2615 5.48266 -15.7316
ltibia 35.1407
lfoot -9.08157 -0.776657
ltoes -18.4359
433
root -2.57883 17.1914 0.698871 -499.128 83.5312 -518.544
lowerback 32.0206 0.367435 2.44404
upperback 5.73888 1.58145 -2.86516
thorax -10.0947 0.922276 -4.999
lowerneck -6.58873 -1.74788 -0.88853
upperneck -16.5887 -0.319149 10.0253
head -3.82444 -0.157588 3.22345
rclavicle 2.84262e-014 -4.13472e-014
rhumerus 24.8183 -19.4107 -106.098
rradius 20.4611
rwrist -33.349
rhand -22.9009 10.4063
rfingers 7.12502
rthumb 3.53882 -19.5441
lclavicle 2.84262e-014 -4.13472e-014
lhumerus 11.3287 -19.9945 25.8419
lradius 14.6221
lwrist -70.9527
lhand -1.61083 34.7307
lfingers 7.12502
lthumb 24.0466 63.2442
rfemur -44.2682 -5.1141 19.2259
rtibia 37.9586
rfoot -12.0862 -6.90664
rtoes -23.9193
lfemur -44.8856 5.75006 -15.4542
ltibia 35.421
lfoot -9.39173 -0.00421111
ltoes -18.7513
434
root -2.57053 17.193 0.691695 -491.843 84.4916 -511.004
lowerback 31.9367 0.396822 1.91183
upperback 5.79195 1.44523 -2.79294
thorax -10.0247 0.8736 -4.57906
lowerneck -6.70823 -1.27592 -0.719985
upperneck -16.5057 0.222166 9.35581
head -3.81816 0.128521 2.97949
rclavicle -2.06736e-014 1.43125e-014
rhumerus 22.9478 -20.941 -104.507
rradius 20.1041
rwrist -33.146
rhand -22.5063 10.2117
rfingers 7.12502
rthumb 3.91984 -19.732
lclavicle -2.06736e-014 1.43125e-014
lhumerus 11.2044 -17.2524 27.2631
lradius 15.3308
lwrist -73.8515
lhand -3.9759 38.8677
lfingers 7.12502
lthumb 21.7771 67.6626
rfemur -44.0221 -4.56447 19.4203
rtibia 37.7229
rfoot -11.8869 -6.24203
rtoes -23.1459
lfemur -44.4481 6.23353 -15.1601
ltibia 35.706
lfoot -9.78257 0.63873
ltoes -18.5225
435
root -2.56589 17.193 0.678791 -483.734 85.1885 -502.696
lowerback 31.9249 0.304237 1.49797
upperback 5.77328 1.18967 -2.72006
thorax -10.0678 0.761242 -4.18314
lowerneck -6.95876 -0.797267 -0.548417
upperneck -15.9532 0.705082 8.48596
head -4.10882 0.430189 2.95758
rclavicle 2.38542e-015 2.54444e-014
rhumerus 20.6654 -21.5106 -102.185
rradius 20.1097
rwrist -34.0223
rhand -22.2554 9.84842
rfingers 7.12502
rthumb 4.16217 -20.0907
lclavicle 2.38542e-015 2.54444e-014
lhumerus 11.4052 -16.8484 28.0712
lradius 16.0813
lwrist -75.7851
lhand -5.42443 41.2137
lfingers 7.12502
lthumb 20.3856 70.1637
rfemur -43.851 -4.23822 19.6138
rtibia 37.51
rfoot -11.6461 -5.67438
rtoes -23.3592
lfemur -44.1044 6.56404 -14.9159
ltibia 35.9414
lfoot -10.0989 1.22245
ltoes -18.0419
436
root -2.55982 17.1972 0.664161 -475.669 85.7297 -494.487
lowerback 31.8721 0.149192 1.12859
upperback 5.73031 0.864966 -2.66865
thorax -10.1213 0.614977 -3.8086
lowerneck -7.03708 -0.321166 -0.523438
upperneck -15.8054 1.25884 7.90736
head -4.06126 0.720897 2.73822
rclavicle 1.39149e-014 -6.75868e-015
rhumerus 18.1039 -21.72 -99.48
rradius 20.3266
rwrist -34.8579
rhand -21.3553 9.39817
rfingers 7.12502
rthumb 5.03128 -20.5221
lclavicle 1.39149e-014 -6.75868e-015
lhumerus 11.7961 -17.3969 28.7149
lradius 17.0851
lwrist -76.7877
lhand -3.97893 41.3071
lfingers 7.12502
lthumb 21.7742 70.1023
rfemur -43.7383 -4.02271 19.6933
rtibia 37.3338
rfoot -11.5559 -5.03
rtoes -23.0276
lfemur -43.8144 6.75574 -14.7717
ltibia 36.1507
lfoot -10.3674 1.75245
ltoes -17.5197
437
root -2.5511 17.2044 0.64993 -466.763 86.1172 -485.457
lowerback 31.7658 -0.0022814 0.787986
upperback 5.70256 0.5583 -2.5944
thorax -10.1299 0.477839 -3.43064
lowerneck -7.09772 0.0948922 -0.599153
upperneck -15.6644 1.74893 7.44606
head -4.01619 0.981013 2.58146
rclavicle 5.40694e-014 1.86858e-014
rhumerus 15.4994 -21.855 -96.5784
rradius 20.6076
rwrist -35.3619
rhand -19.6979 8.77059
rfingers 7.12502
rthumb 6.63147 -21.1056
lclavicle 5.40694e-014 1.86858e-014
lhumerus 12.5539 -17.912 29.5521
lradius 17.7713
lwrist -77.1752
lhand -1.40502 40.1542
lfingers 7.12502
lthumb 24.2439 68.6415
rfemur -43.6612 -3.8029 19.7474
rtibia 37.1647
rfoot -11.5228 -4.45196
rtoes -21.6826
lfemur -43.5433 6.89855 -14.638
ltibia 36.3439
lfoot -10.6323 2.2464
ltoes -17.1234
438
root -2.54106 17.2022 0.634622 -458.424 86.2986 -477.023
lowerback 31.5565 -0.178455 0.623768
upperback 5.70476 0.281296 -2.51358
thorax -10.0574 0.351303 -3.1506
lowerneck -7.07864 0.4051 -0.757908
upperneck -15.5482 2.11379 7.11137
head -3.9907 1.17634 2.4873
rclavicle 7.15625e-015 -2.54444e-014
rhumerus 12.8791 -21.728 -93.4126
rradius 20.9185
rwrist -35.7475
rhand -18.0107 7.83523
rfingers 7.12502
rthumb 8.25997 -21.9833
lclavicle 7.15625e-015 -2.54444e-014
lhumerus 13.7478 -18.0274 30.7201
lradius 17.8861
lwrist -77.2489
lhand 0.0381921 38.5375
lfingers 7.12502
lthumb 25.627 66.833
rfemur -43.5209 -3.57053 19.8107
rtibia 36.9743
rfoot -11.4644 -4.12696
rtoes -21.0465
lfemur -43.3683 6.96066 -14.4798
ltibia 36.5371
lfoot -10.8072 2.71616
ltoes -17.5559
439
root -2.5275 17.2002 0.623507 -449.066 86.2961 -467.519
lowerback 31.1678 -0.281109 0.49218
upperback 6.09211 0.113025 -2.2822
thorax -10.2087 0.24853 -2.98016
lowerneck -6.89568 0.665934 -1.00684
upperneck -15.4878 2.42263 6.82678
head -4.01491 1.34164 2.42877
rclavicle -2.78299e-014 -3.97569e-014
rhumerus 10.2324 -21.7493 -90.1095
rradius 21.1682
rwrist -35.9069
rhand -16.3639 6.7358
rfingers 7.12502
rthumb 9.84912 -23.0138
lclavicle -2.78299e-014 -3.97569e-014
lhumerus 15.1458 -17.5577 32.3295
lradius 17.4143
lwrist -76.8371
lhand 0.236725 35.674
lfingers 7.12502
lthumb 25.8171 63.942
rfemur -43.2501 -3.34246 20.0214
rtibia 36.7214
rfoot -11.4197 -3.85233
rtoes -21.1842
lfemur -43.1315 7.11188 -14.2252
ltibia 36.7238
lfoot -10.92 3.17694
ltoes -18.5117
440
root -2.50872 17.2061 0.616834 -438.088 86.1992 -456.332
lowerback 30.9872 -0.286965 0.184729
upperback 6.06855 0.0139558 -2.14165
thorax -10.1532 0.209134 -2.59771
lowerneck -6.77012 0.963414 -1.29666
upperneck -15.383 2.77357 6.49914
head -4.01418 1.53328 2.36119
rclavicle 7.95139e-016 1.66979e-014
rhumerus 7.51663 -21.9835 -86.7979
rradius 21.3851
rwrist -35.6666
rhand -14.353 6.11913
rfingers 7.12502
rthumb 11.7887 -23.5291
lclavicle 7.95139e-016 1.66979e-014
lhumerus 16.8406 -20.9543 32.1798
lradius 17.4353
lwrist -71.1163
lhand 0.432974 32.2681
lfingers 7.12502
lthumb 26.005 60.5086
rfemur -42.9102 -3.03211 20.2266
rtibia 36.4276
rfoot -11.3532 -3.45164
rtoes -21.1662
lfemur -42.7265 7.38236 -13.9651
ltibia 36.8565
lfoot -11.1982 3.61207
ltoes -18.5613
441
root -2.48182 17.2179 0.613636 -425.626 86.0497 -443.625
lowerback 30.704 -0.165551 -0.343565
upperback 6.07121 0.00899748 -2.018
thorax -10.0112 0.219925 -2.14104
lowerneck -6.76921 1.28897 -1.55456
upperneck -15.1695 3.15182 6.14555
head -3.95095 1.74092 2.27766
rclavicle -1.11319e-014 4.77083e-015
rhumerus 4.67063 -22.0693 -83.3517
rradius 21.7018
rwrist -35.246
rhand -12.3874 5.83407
rfingers 7.12502
rthumb 13.6837 -23.6961
lclavicle -1.11319e-014 4.77083e-015
lhumerus 18.3663 -21.0711 33.5953
lradius 16.7552
lwrist -67.8632
lhand 0.148708 27.9016
lfingers 7.12502
lthumb 25.7328 56.1818
rfemur -42.4924 -2.6637 20.3102
rtibia 36.122
rfoot -11.3234 -2.98481
rtoes -21.0407
lfemur -42.1573 7.7412 -13.8357
ltibia 36.9261
lfoot -11.5399 4.09306
ltoes -18.6799
442
root -2.45569 17.2342 0.616114 -415.578 85.8268 -433.289
lowerback 30.4069 -0.0375007 -0.914666
upperback 6.08563 0.00496583 -1.8946
thorax -9.84793 0.232267 -1.6614
lowerneck -6.58823 1.60756 -1.76101
upperneck -15.0795 3.5242 5.76189
head -3.96305 1.93931 2.17505
rclavicle 8.74653e-015 -5.56597e-015
rhumerus 1.91544 -21.9372 -79.8176
rradius 21.8603
rwrist -34.7125
rhand -10.6368 5.776
rfingers 7.12502
rthumb 15.3704 -23.6327
lclavicle 8.74653e-015 -5.56597e-015
lhumerus 19.7966 -20.6597 35.4352
lradius 16.0293
lwrist -64.7321
lhand 0.0312696 23.9808
lfingers 7.12502
lthumb 25.6203 52.2773
rfemur -42.054 -2.38246 20.3374
rtibia 35.8449
rfoot -11.3207 -2.49683
rtoes -20.3792
lfemur -41.4995 8.03249 -13.7522
ltibia 36.9201
lfoot -11.7836 4.46682
ltoes -18.6477
443
root -2.43494 17.2436 0.622904 -410.332 85.5631 -427.776
lowerback 30.1767 -0.0295626 -1.38431
upperback 6.10226 -0.110837 -1.72291
thorax -9.71556 0.190437 -1.14672
lowerneck -6.62499 1.95346 -1.92845
upperneck -14.8299 3.92729 5.40042
head -3.87792 2.15526 2.07327
rclavicle -7.95139e-016 1.27222e-014
rhumerus -0.623253 -21.864 -76.4023
rradius 22.0087
rwrist -34.0301
rhand -9.3812 5.75259
rfingers 7.12502
rthumb 16.5795 -23.5592
lclavicle -7.95139e-016 1.27222e-014
lhumerus 21.0553 -19.842 37.5211
lradius 15.3573
lwrist -61.683
lhand 0.122311 20.8804
lfingers 7.12502
lthumb 25.7075 49.1642
rfemur -41.6461 -2.14608 20.4342
rtibia 35.6092
rfoot -11.3213 -2.20462
rtoes -20.0558
lfemur -40.949 8.17828 -13.5657
ltibia 36.8743
lfoot -11.9218 4.74733
ltoes -18.9609
444
root -2.41504 17.2518 0.630292 -406.319 85.3208 -423.542
lowerback 29.9257 -0.0216638 -1.78473
upperback 6.13194 -0.204838 -1.58314
thorax -9.55558 0.156003 -0.718118
lowerneck -6.96161 2.30491 -1.98791
upperneck -14.3917 4.32417 4.98701
head -3.66497 2.37024 1.93871
rclavicle 3.18055e-014 4.69132e-014
rhumerus -2.99959 -22.25 -73.0537
rradius 22.1085
rwrist -32.9122
rhand -8.65608 5.60068
rfingers 7.12502
rthumb 17.2775 -23.6513
lclavicle 3.18055e-014 4.69132e-014
lhumerus 22.5441 -19.7773 39.3367
lradius 14.6362
lwrist -57.0499
lhand 0.243928 19.0257
lfingers 7.12502
lthumb 25.824 47.2927
rfemur -41.2654 -1.89912 20.4876
rtibia 35.4122
rfoot -11.3113 -2.02286
rtoes -19.8778
lfemur -40.4876 8.25056 -13.3954
ltibia 36.7883
lfoot -11.9817 5.02619
ltoes -18.9452
